<svg width="20" height="20" viewBox="0 0 20 20" fill="none" xmlns="http://www.w3.org/2000/svg">
<g clip-path="url(#clip0_11068_2205)">
<path d="M18.75 10.6133V18.1133C18.75 18.8033 18.1888 19.3633 17.5 19.3633H11.25V10.6133H18.75Z" fill="black"/>
<path d="M1.25 5.61266H5.205C4.92125 5.41891 4.6775 5.22641 4.5075 5.05391C3.49875 4.04016 3.49875 2.39016 4.5075 1.37641C5.4875 0.388907 7.195 0.391407 8.17375 1.37641C8.71625 1.92016 10.1537 4.13391 9.955 5.61266H10.045C9.8475 4.13391 11.285 1.92016 11.8263 1.37641C12.8063 0.391407 14.5138 0.391407 15.4925 1.37641C16.5 2.39016 16.5 4.04016 15.4938 5.05391C15.3225 5.22641 15.0788 5.41891 14.795 5.61266H18.75C19.4388 5.61266 20 6.17391 20 6.86266V8.73766C20 9.08266 19.72 9.36266 19.375 9.36266H11.25V6.86266H8.75V9.36266H0.625C0.280001 9.36266 0 9.08266 0 8.73766V6.86266C0 6.17391 0.559999 5.61266 1.25 5.61266ZM11.3237 5.57141C11.3237 5.57141 11.3763 5.61266 11.555 5.61266C12.4187 5.61266 14.0675 4.71516 14.6062 4.17266C15.13 3.64516 15.13 2.78516 14.6062 2.25766C14.3525 2.00266 14.0163 1.86266 13.6588 1.86266C13.3025 1.86266 12.9662 2.00266 12.7125 2.25766C11.87 3.10516 11.0325 5.27016 11.3237 5.57141ZM8.44625 5.61266C8.62375 5.61266 8.67625 5.57266 8.67625 5.57141C8.9675 5.27016 8.13 3.10516 7.2875 2.25766C6.78375 1.74891 5.9025 1.74641 5.39375 2.25766C4.86875 2.78516 4.86875 3.64516 5.39375 4.17266C5.9325 4.71516 7.58125 5.61266 8.44625 5.61266Z" fill="black"/>
<path d="M8.75 10.6133V19.3633H2.5C1.81 19.3633 1.25 18.8033 1.25 18.1133V10.6133H8.75Z" fill="black"/>
</g>
<defs>
<clipPath id="clip0_11068_2205">
<rect width="20" height="20" fill="white" transform="matrix(-1 0 0 1 20 0)"/>
</clipPath>
</defs>
</svg>
