<svg width="17" height="17" viewBox="0 0 17 17" fill="none" xmlns="http://www.w3.org/2000/svg">
<path d="M0.0078125 8.5C0.0078125 3.81034 3.81034 0.0078125 8.5 0.0078125C13.1897 0.0078125 16.9922 3.81034 16.9922 8.5C16.9922 13.1897 13.1897 16.9922 8.5 16.9922C3.81034 16.9922 0.0078125 13.1897 0.0078125 8.5ZM1.43415 8.5C1.43415 12.4014 4.59859 15.5658 8.5 15.5658C12.4014 15.5658 15.5658 12.4014 15.5658 8.5C15.5658 4.59859 12.4014 1.43415 8.5 1.43415C4.59859 1.43415 1.43415 4.59859 1.43415 8.5Z" fill="#828B8D" stroke="white" stroke-width="0.015625"/>
<path d="M7.86162 12.4777C7.69229 12.3084 7.59717 12.0788 7.59717 11.8393C7.59717 11.5998 7.69229 11.3702 7.86162 11.2008C8.03095 11.0315 8.26061 10.9364 8.50007 10.9364C8.73953 10.9364 8.96919 11.0315 9.13852 11.2008C9.30784 11.3702 9.40297 11.5998 9.40297 11.8393C9.40297 12.0788 9.30784 12.3084 9.13852 12.4777C8.96919 12.6471 8.73953 12.7422 8.50007 12.7422C8.26061 12.7422 8.03095 12.6471 7.86162 12.4777ZM8.95543 9.70647H8.04471C7.96555 9.70647 7.90074 9.64167 7.90074 9.5625V4.40179C7.90074 4.32262 7.96555 4.25781 8.04471 4.25781H8.95543C9.03459 4.25781 9.0994 4.32262 9.0994 4.40179V9.5625C9.0994 9.64167 9.03459 9.70647 8.95543 9.70647Z" fill="#828B8D" stroke="white" stroke-width="0.015625"/>
</svg>
